<?xml version="1.0" encoding="UTF-8" standalone="no"?>
<svg
   xmlns:svg="http://www.w3.org/2000/svg"
   xmlns="http://www.w3.org/2000/svg"
   version="1.1"
   id="svg4656"
   viewBox="0 0 763.4358 119.49551"
   height="119.49551"
   width="763.43579">
  <defs
     id="defs4658" />
  <g
     transform="translate(61.717885,-395.47159)"
     id="layer1">
    <path
       d="m 36.039136,456.97045 0,-8.66538 c 0,-8.18899 -6.643895,-14.85005 -14.837175,-14.85005 l -63.082671,0 c -8.197571,0 -14.837175,6.66106 -14.837175,14.85005 l 0,32.62719 70.366064,0 0,4.9443 -70.366064,0 0,8.65679 c 0,8.19329 6.639604,14.84148 14.837175,14.84148 l 63.082671,0 c 8.19328,0 14.837175,-6.64819 14.837175,-14.84148 l 0,-32.6229 -70.361771,0 0,-4.94 70.361771,0 z m -56.228471,-32.17224 c -2.738246,-2.78545 -4.111662,-6.14603 -4.111662,-10.07744 0,-3.84555 1.373416,-7.21471 4.068742,-10.00018 2.738246,-2.81121 6.05161,-4.249 9.892881,-4.249 3.776891,0 7.077379,1.40775 9.819918,4.21038 2.755414,2.78975 4.15458,6.19325 4.15458,10.0388 0,3.93141 -1.373415,7.29198 -4.120245,10.07744 -2.74683,2.80262 -6.077362,4.20608 -9.854253,4.20608 -3.841271,0 -7.154635,-1.40346 -9.849961,-4.20608"
       style="fill:#c20e1a;fill-opacity:1;fill-rule:nonzero;stroke:none"
       id="path452" />
    <path
       d="m 668.84615,432.87989 c 15.7771,0 23.95321,1.78115 23.95321,9.13321 l 0,7.46794 -21.57977,0 c -5.81126,0 -7.47225,1.5451 -7.47225,4.63099 0,9.12892 32.97055,7.2276 32.97055,32.85037 0,12.21052 -7.00014,23.0047 -28.34385,23.0047 -13.99598,0 -25.0262,-2.25326 -25.0262,-9.13321 l 0,-7.46794 25.4983,0 c 5.21897,0 7.70829,-1.66097 7.70829,-5.33914 0,-9.96157 -32.85036,-8.06453 -32.85036,-34.39118 0,-11.62252 7.70828,-20.75574 25.14207,-20.75574 m -49.34852,49.69188 c -1.18886,-7.11601 -1.66098,-17.07756 -1.66098,-25.37814 l 0,-23.72145 17.19774,0 0,70.20726 c 0,3.44213 -1.66098,5.93144 -6.16749,5.93144 l -10.43796,0 c -3.43783,0 -4.74258,-0.35624 -6.28338,-3.32195 l -23.83732,-46.0137 -0.47641,0 c 1.18457,9.01304 1.5408,18.73854 1.5408,25.37814 l 0,23.72145 -17.19344,0 0,-69.61498 c 0,-4.0344 2.13309,-6.52372 6.6396,-6.52372 l 10.07744,0 c 3.32195,0 4.74686,0.35623 6.28766,3.32195 l 23.72146,46.0137 0.59228,0 z M 518.79626,471.42136 c 0,17.43807 4.15029,23.12916 12.45087,23.12916 8.1847,0 12.45516,-5.69109 12.45516,-23.12916 0,-17.43379 -4.27046,-23.12488 -12.45516,-23.12488 -8.30058,0 -12.45087,5.69109 -12.45087,23.12488 m -19.56687,0 c 0,-27.03483 11.38647,-38.54147 32.01774,-38.54147 20.51968,0 32.02203,11.50664 32.02203,38.54147 0,27.03911 -11.50235,38.54574 -32.02203,38.54574 -20.63127,0 -32.01774,-11.50663 -32.01774,-38.54574 m -8.90145,37.95346 -18.97888,0 0,-69.14287 c 0,-4.50651 2.0215,-6.75977 6.52373,-6.75977 l 12.45515,0 0,75.90264 z m -24.9189,-75.90264 0,9.60532 c 0,4.39063 -2.25325,6.40354 -6.6396,6.40354 l -9.36926,0 0,59.89378 -18.97459,0 0,-59.89378 -16.00888,0 0,-9.60531 c 0,-4.38635 2.24898,-6.40355 6.6396,-6.40355 l 44.35273,0 z m -118.01069,0 18.9703,0 0,49.09959 c 0,8.53663 3.44211,11.38217 11.85858,11.38217 8.18898,0 11.27058,-2.84554 11.27058,-11.38217 l 0,-49.09959 18.97459,0 0,49.09959 c 0,18.26212 -9.84566,27.39533 -30.24517,27.39533 -20.51539,0 -30.82888,-9.13321 -30.82888,-27.39533 l 0,-49.09959 z m -53.38292,6.75977 c 0,-4.50651 2.0172,-6.75977 6.52372,-6.75977 l 12.45086,0 0,59.89377 29.05632,0 0,9.36498 c 0,4.5108 -2.25327,6.64389 -6.75978,6.64389 l -34.7474,0 c -4.50652,0 -6.52372,-2.25325 -6.52372,-6.75978 l 0,-62.38309 z m -53.37864,31.1894 c 0,17.43808 4.15029,23.12917 12.45086,23.12917 8.1847,0 12.45088,-5.69109 12.45088,-23.12917 0,-17.43378 -4.26618,-23.12487 -12.45088,-23.12487 -8.30057,0 -12.45086,5.69109 -12.45086,23.12487 m -19.57116,0 c 0,-27.03482 11.38646,-38.54146 32.02202,-38.54146 20.51969,0 32.02204,11.50664 32.02204,38.54146 0,27.03912 -11.50235,38.54575 -32.02204,38.54575 -20.63556,0 -32.02202,-11.50663 -32.02202,-38.54575 m -34.99634,-38.54146 c 15.77711,0 23.95751,1.78115 23.95751,9.13321 l 0,7.46794 -21.58837,0 c -5.80697,0 -7.46794,1.5451 -7.46794,4.63099 0,9.12892 32.96625,7.2276 32.96625,32.85037 0,12.21052 -6.99583,23.0047 -28.33956,23.0047 -13.99595,0 -25.0262,-2.25326 -25.0262,-9.13321 l 0,-7.46794 25.49831,0 c 5.21469,0 7.7083,-1.66097 7.7083,-5.33914 0,-9.96157 -32.85038,-8.06453 -32.85038,-34.39118 0,-11.62252 7.70829,-20.75574 25.14208,-20.75574 m -53.97521,0.59229 0,9.60533 c 0,4.39062 -2.25327,6.40353 -6.6396,6.40353 l -9.36927,0 0,59.89378 -18.978885,0 0,-59.89378 -16.00458,0 0,-9.60531 c 0,-4.38635 2.24897,-6.40355 6.6396,-6.40355 l 44.352735,0 z m -56.932355,75.90264 -18.97459,0 0,-69.14286 c 0,-4.50652 2.01721,-6.75978 6.52372,-6.75978 l 12.45087,0 0,75.90264 z"
       style="fill:#14518c;fill-opacity:1;fill-rule:nonzero;stroke:none"
       id="path456" />
  </g>
</svg>
